M48
; DRILL file {KiCad 9.0.0} date 2025-02-25T08:09:36-0600
; FORMAT={-:-/ absolute / metric / decimal}
; #@! TF.CreationDate,2025-02-25T08:09:36-06:00
; #@! TF.GenerationSoftware,Kicad,Pcbnew,9.0.0
; #@! TF.FileFunction,Plated,1,4,PTH
FMAT,2
METRIC
; #@! TA.AperFunction,Plated,PTH,ViaDrill
T1C0.300
; #@! TA.AperFunction,Plated,PTH,ComponentDrill
T2C0.650
; #@! TA.AperFunction,Plated,PTH,ComponentDrill
T3C0.940
; #@! TA.AperFunction,Plated,PTH,ComponentDrill
T4C1.100
; #@! TA.AperFunction,Plated,PTH,ComponentDrill
T5C2.057
%
G90
G05
T1
X119.965Y-70.932
X119.965Y-75.932
X119.965Y-80.932
X119.965Y-85.932
X119.965Y-90.932
X119.965Y-95.932
X119.965Y-100.932
X119.965Y-105.932
X119.965Y-110.932
X119.965Y-115.932
X119.965Y-120.932
X119.965Y-125.932
X122.465Y-68.432
X122.465Y-73.432
X122.465Y-78.432
X122.465Y-83.432
X122.465Y-88.432
X122.465Y-93.432
X122.465Y-98.432
X122.465Y-103.432
X122.465Y-108.432
X122.465Y-113.432
X122.465Y-128.433
X124.965Y-65.932
X124.965Y-70.932
X124.965Y-75.932
X124.965Y-80.932
X124.965Y-85.932
X124.965Y-90.932
X124.965Y-95.932
X124.965Y-100.932
X124.965Y-105.932
X124.965Y-110.932
X124.965Y-125.932
X124.965Y-130.933
X124.965Y-135.933
X125.365Y-73.132
X126.865Y-80.132
X126.865Y-81.032
X126.865Y-82.032
X127.465Y-83.432
X127.465Y-88.432
X127.465Y-108.432
X127.465Y-118.432
X127.465Y-123.432
X127.465Y-128.433
X127.465Y-133.433
X128.965Y-103.032
X129.265Y-77.233
X129.365Y-105.932
X129.965Y-70.932
X129.965Y-85.932
X129.965Y-110.932
X129.965Y-115.932
X129.965Y-120.932
X129.965Y-125.932
X130.565Y-90.233
X132.365Y-98.932
X132.465Y-73.332
X132.465Y-74.132
X132.465Y-88.432
X132.465Y-108.432
X132.465Y-118.432
X132.465Y-123.432
X133.215Y-78.932
X133.365Y-112.132
X133.465Y-82.932
X134.215Y-78.932
X134.465Y-88.233
X134.565Y-100.432
X134.765Y-104.932
X134.965Y-60.932
X134.965Y-70.932
X134.965Y-92.132
X134.965Y-105.932
X134.965Y-110.932
X134.965Y-115.932
X134.965Y-120.932
X135.165Y-93.332
X135.165Y-94.432
X135.165Y-95.532
X135.465Y-88.132
X135.665Y-100.432
X135.665Y-104.932
X135.715Y-86.682
X136.665Y-100.432
X136.665Y-104.932
X136.715Y-86.432
X136.965Y-79.182
X137.465Y-63.432
X137.465Y-68.432
X137.465Y-118.432
X137.465Y-123.432
X137.665Y-111.432
X138.665Y-71.233
X139.865Y-118.032
X139.965Y-60.932
X139.965Y-65.932
X141.165Y-101.632
X141.365Y-85.632
X141.465Y-71.233
X141.465Y-88.432
X142.465Y-63.432
X142.465Y-68.432
X142.465Y-87.932
X142.465Y-93.432
X142.465Y-98.432
X142.465Y-103.432
X142.765Y-76.233
X143.715Y-123.182
X143.765Y-101.132
X143.865Y-107.932
X144.065Y-108.832
X144.215Y-117.932
X144.565Y-112.632
X144.765Y-93.132
X144.865Y-92.132
X144.965Y-60.932
X144.965Y-73.832
X144.965Y-95.932
X144.965Y-105.932
X145.265Y-87.733
X146.265Y-87.832
X147.465Y-88.432
X147.465Y-93.432
X147.465Y-98.432
X147.465Y-103.432
X147.465Y-123.432
X147.665Y-66.532
X148.065Y-67.832
X148.065Y-68.733
X148.065Y-69.632
X148.165Y-60.532
X148.165Y-61.932
X148.215Y-114.932
X149.215Y-110.682
X149.465Y-80.432
X149.665Y-69.733
X149.765Y-60.032
X149.765Y-65.233
X149.965Y-85.932
X149.965Y-95.932
X149.965Y-125.932
X149.965Y-130.933
X149.965Y-135.933
X150.215Y-75.182
X150.465Y-80.932
X150.665Y-62.832
X150.765Y-65.032
X151.215Y-75.182
X151.665Y-108.932
X151.665Y-109.932
X151.665Y-111.132
X151.965Y-115.682
X152.215Y-119.932
X152.465Y-83.432
X152.465Y-88.432
X152.465Y-93.432
X152.465Y-123.432
X152.465Y-128.433
X152.465Y-133.433
X152.465Y-138.433
X152.565Y-96.733
X153.465Y-106.032
X154.765Y-63.133
X154.965Y-80.932
X154.965Y-125.932
X154.965Y-130.933
X154.965Y-135.933
X155.215Y-115.932
X155.765Y-63.032
X156.215Y-116.182
X156.465Y-107.832
X156.665Y-74.432
X157.215Y-80.182
X157.465Y-88.432
X157.465Y-107.682
X157.465Y-123.432
X157.465Y-133.433
X157.465Y-138.433
X157.575Y-77.403
X157.665Y-86.632
X157.965Y-80.682
X158.665Y-86.632
X159.065Y-104.132
X159.665Y-86.632
X159.965Y-90.932
X159.965Y-95.932
X159.965Y-100.932
X159.965Y-110.932
X159.965Y-115.932
X159.965Y-120.932
X159.965Y-130.933
X159.965Y-135.933
X160.715Y-67.932
X161.715Y-67.932
X162.465Y-88.432
X162.465Y-93.432
X162.465Y-98.432
X162.465Y-103.432
X162.465Y-108.432
X162.465Y-113.432
X162.465Y-118.432
X162.465Y-123.432
X162.665Y-81.132
X162.865Y-73.832
X164.965Y-90.932
X164.965Y-95.932
X164.965Y-100.932
X164.965Y-105.932
X164.965Y-110.932
X164.965Y-115.932
X164.965Y-120.932
X167.465Y-88.432
X169.865Y-71.132
X169.965Y-83.632
T3
X140.507Y-127.211
X143.047Y-127.211
T4
X128.215Y-63.432
X128.215Y-67.932
X134.715Y-63.432
X134.715Y-67.932
T5
X135.427Y-132.291
X145.587Y-132.291
T2
G00X164.227Y-73.112
M15
G01X165.127Y-73.112
M16
G05
G00X164.227Y-81.752
M15
G01X165.127Y-81.752
M16
G05
G00X168.427Y-73.112
M15
G01X169.227Y-73.112
M16
G05
G00X168.427Y-81.752
M15
G01X169.227Y-81.752
M16
G05
M30
