%TF.GenerationSoftware,KiCad,Pcbnew,9.0.0*%
%TF.CreationDate,2025-02-25T08:09:40-06:00*%
%TF.ProjectId,Fatigue Test Board,46617469-6775-4652-9054-65737420426f,-*%
%TF.SameCoordinates,Original*%
%TF.FileFunction,Copper,L4,Bot*%
%TF.FilePolarity,Positive*%
%FSLAX46Y46*%
G04 Gerber Fmt 4.6, Leading zero omitted, Abs format (unit mm)*
G04 Created by KiCad (PCBNEW 9.0.0) date 2025-02-25 08:09:40*
%MOMM*%
%LPD*%
G01*
G04 APERTURE LIST*
%TA.AperFunction,ComponentPad*%
%ADD10C,1.447800*%
%TD*%
%TA.AperFunction,ComponentPad*%
%ADD11C,2.565400*%
%TD*%
%TA.AperFunction,ComponentPad*%
%ADD12O,2.150000X1.050000*%
%TD*%
%TA.AperFunction,ComponentPad*%
%ADD13O,1.850000X1.050000*%
%TD*%
%TA.AperFunction,ComponentPad*%
%ADD14C,2.000000*%
%TD*%
%TA.AperFunction,ViaPad*%
%ADD15C,0.700000*%
%TD*%
%TA.AperFunction,Conductor*%
%ADD16C,0.500000*%
%TD*%
%TA.AperFunction,Conductor*%
%ADD17C,0.300000*%
%TD*%
G04 APERTURE END LIST*
D10*
%TO.P,J300,1,In*%
%TO.N,/ADC/IN*%
X140507400Y-127210903D03*
%TO.P,J300,2,Ext*%
%TO.N,GND*%
X143047400Y-127210903D03*
D11*
%TO.P,J300,3*%
%TO.N,N/C*%
X135427400Y-132290903D03*
%TO.P,J300,4*%
X145587400Y-132290903D03*
%TD*%
D12*
%TO.P,J200,SH1,SHIELD*%
%TO.N,unconnected-(J200-SHIELD-PadSH1)*%
X164677500Y-81752500D03*
%TO.P,J200,SH2,SHIELD__1*%
%TO.N,unconnected-(J200-SHIELD__1-PadSH2)*%
X164677500Y-73112500D03*
D13*
%TO.P,J200,SH3,SHIELD__2*%
%TO.N,unconnected-(J200-SHIELD__2-PadSH3)*%
X168827500Y-81752500D03*
%TO.P,J200,SH4,SHIELD__3*%
%TO.N,unconnected-(J200-SHIELD__3-PadSH4)*%
X168827500Y-73112500D03*
%TD*%
D14*
%TO.P,SW200,1,1*%
%TO.N,GND*%
X128215000Y-63432500D03*
X134715000Y-63432500D03*
%TO.P,SW200,2,2*%
%TO.N,/MCU/NRST*%
X128215000Y-67932500D03*
X134715000Y-67932500D03*
%TD*%
D15*
%TO.N,GND*%
X142465000Y-68432500D03*
X137465000Y-63432500D03*
X134965000Y-60932500D03*
X139965000Y-60932500D03*
X144965000Y-60932500D03*
X142465000Y-63432500D03*
X139965000Y-65932500D03*
X137465000Y-68432500D03*
X134965000Y-70932500D03*
X124965000Y-75932500D03*
X124965000Y-80932500D03*
X129965000Y-70932500D03*
X124965000Y-65932500D03*
X122465000Y-68432500D03*
X124965000Y-70932500D03*
X119965000Y-70932500D03*
X122465000Y-73432500D03*
X122465000Y-78432500D03*
X119965000Y-75932500D03*
X119965000Y-80932500D03*
X127465000Y-83432500D03*
X122465000Y-83432500D03*
X124965000Y-85932500D03*
X129965000Y-85932500D03*
X132465000Y-88432500D03*
X127465000Y-88432500D03*
X124965000Y-90932500D03*
X124965000Y-95932500D03*
X124965000Y-100932500D03*
X124965000Y-105932500D03*
X122465000Y-103432500D03*
X122465000Y-98432500D03*
X122465000Y-93432500D03*
X122465000Y-88432500D03*
X119965000Y-85932500D03*
X119965000Y-90932500D03*
X119965000Y-95932500D03*
X119965000Y-100932500D03*
X119965000Y-105932500D03*
X124965000Y-110932500D03*
X122465000Y-113432500D03*
X127465000Y-133432500D03*
X124965000Y-135932500D03*
X124965000Y-130932500D03*
X129965000Y-125932500D03*
X127465000Y-128432500D03*
X124965000Y-125932500D03*
X122465000Y-128432500D03*
X119965000Y-125932500D03*
X119965000Y-120932500D03*
X119965000Y-115932500D03*
X119965000Y-110932500D03*
X122465000Y-108432500D03*
X134965000Y-105932500D03*
X132465000Y-108432500D03*
X127465000Y-108432500D03*
X134965000Y-110932500D03*
X129965000Y-110932500D03*
X134965000Y-115932500D03*
X129965000Y-115932500D03*
X127465000Y-118432500D03*
X137465000Y-118432500D03*
X132465000Y-118432500D03*
X134965000Y-120932500D03*
X129965000Y-120932500D03*
X127465000Y-123432500D03*
X132465000Y-123432500D03*
X137465000Y-123432500D03*
X142465000Y-103432500D03*
X144965000Y-105932500D03*
X147465000Y-103432500D03*
X147465000Y-93432500D03*
X142465000Y-93432500D03*
X144965000Y-95932500D03*
X142465000Y-98432500D03*
X147465000Y-98432500D03*
X149965000Y-95932500D03*
X152465000Y-93432500D03*
X154965000Y-80932500D03*
X152465000Y-83432500D03*
X149965000Y-85932500D03*
X147465000Y-88432500D03*
X152465000Y-88432500D03*
X159965000Y-135932500D03*
X157465000Y-138432500D03*
X152465000Y-138432500D03*
X149965000Y-135932500D03*
X154965000Y-135932500D03*
X152465000Y-133432500D03*
X157465000Y-133432500D03*
X159965000Y-130932500D03*
X152465000Y-128432500D03*
X149965000Y-130932500D03*
X154965000Y-130932500D03*
X154965000Y-125932500D03*
X149965000Y-125932500D03*
X147465000Y-123432500D03*
X152465000Y-123432500D03*
X157465000Y-123432500D03*
X164965000Y-120932500D03*
X164965000Y-115932500D03*
X164965000Y-100932500D03*
X164965000Y-110932500D03*
X164965000Y-105932500D03*
X159965000Y-110932500D03*
X159965000Y-115932500D03*
X159965000Y-120932500D03*
X162465000Y-123432500D03*
X162465000Y-118432500D03*
X162465000Y-113432500D03*
X162465000Y-108432500D03*
X162465000Y-103432500D03*
X159965000Y-100932500D03*
X162465000Y-98432500D03*
X162465000Y-93432500D03*
X164965000Y-95932500D03*
X159965000Y-95932500D03*
X159965000Y-90932500D03*
X164965000Y-90932500D03*
X167465000Y-88432500D03*
X162465000Y-88432500D03*
X157465000Y-88432500D03*
X132465000Y-74132500D03*
X132465000Y-73332500D03*
X125365000Y-73132500D03*
X129265000Y-77232500D03*
X141365000Y-85632500D03*
X156665000Y-74432500D03*
X129365000Y-105932500D03*
X128965000Y-103032500D03*
X139865000Y-118032500D03*
X144065000Y-108832500D03*
%TO.N,VCOM*%
X143865000Y-107932500D03*
%TO.N,GND*%
X151665000Y-111132500D03*
X151665000Y-109932500D03*
X151665000Y-108932500D03*
X153465000Y-106032500D03*
X159065000Y-104132500D03*
X152565000Y-96732500D03*
%TO.N,+3.3VA*%
X143765000Y-101132500D03*
X132365000Y-98932500D03*
%TO.N,GND*%
X144765000Y-93132500D03*
%TO.N,+5V*%
X144865000Y-92132500D03*
X134965000Y-92132500D03*
%TO.N,GND*%
X135165000Y-95532500D03*
X135165000Y-94432500D03*
X135165000Y-93332500D03*
X147665000Y-66532500D03*
X155765000Y-63032500D03*
%TO.N,+5V*%
X154765000Y-63132500D03*
X149765000Y-65232500D03*
%TO.N,GND*%
X150765000Y-65032500D03*
X150665000Y-62832500D03*
X149765000Y-60032500D03*
X148165000Y-60532500D03*
X148165000Y-61932500D03*
X148065000Y-67832500D03*
X148065000Y-68732500D03*
X148065000Y-69632500D03*
X149665000Y-69732500D03*
X144565000Y-112632500D03*
X133365000Y-112132500D03*
X137665000Y-111432500D03*
X136665000Y-104932500D03*
X135665000Y-104932500D03*
X134765000Y-104932500D03*
X136665000Y-100432500D03*
X135665000Y-100432500D03*
X134565000Y-100432500D03*
X130565000Y-90232500D03*
X135465000Y-88132500D03*
X146265000Y-87832500D03*
%TO.N,+3V3*%
X145265000Y-87732500D03*
X134465000Y-88232500D03*
%TO.N,GND*%
X142765000Y-76232500D03*
X144965000Y-73832500D03*
X141465000Y-71232500D03*
X138665000Y-71232500D03*
X133465000Y-82932500D03*
X126865000Y-82032500D03*
X126865000Y-81032500D03*
X126865000Y-80132500D03*
X159665000Y-86632500D03*
X158665000Y-86632500D03*
X157665000Y-86632500D03*
X162865000Y-73832500D03*
X169865000Y-71132500D03*
X169965000Y-83632500D03*
X162665000Y-81132500D03*
X141165000Y-101632500D03*
X156465000Y-107832500D03*
X156215000Y-116182500D03*
%TO.N,VCOM*%
X157465000Y-107682500D03*
X155215000Y-115932500D03*
%TO.N,GND*%
X149215000Y-110682500D03*
X148215000Y-114932500D03*
X151965000Y-115682500D03*
X152215000Y-119932500D03*
X144215000Y-117932500D03*
X143715000Y-123182500D03*
X133215000Y-78932500D03*
%TO.N,/MCU/NRST*%
X134215000Y-78932500D03*
%TO.N,GND*%
X136965000Y-79182500D03*
X135715000Y-86682500D03*
X142465000Y-87932500D03*
%TO.N,SPI1_NSS*%
X136715000Y-86432500D03*
X141465000Y-88432500D03*
%TO.N,GND*%
X151215000Y-75182500D03*
X150465000Y-80932500D03*
X157215000Y-80182500D03*
X161715000Y-67932500D03*
%TO.N,+3V3*%
X149465000Y-80432500D03*
X150215000Y-75182500D03*
%TO.N,+5V*%
X157965000Y-80682500D03*
X160715000Y-67932500D03*
%TO.N,GND*%
X157574886Y-77402500D03*
%TD*%
D16*
%TO.N,VCOM*%
X152965000Y-107932500D02*
X143865000Y-107932500D01*
X157465000Y-109932500D02*
X157465000Y-113682500D01*
X157465000Y-109932500D02*
X154965000Y-109932500D01*
X154965000Y-109932500D02*
X152965000Y-107932500D01*
%TO.N,+3.3VA*%
X143765000Y-101132500D02*
X141565000Y-98932500D01*
X141565000Y-98932500D02*
X132365000Y-98932500D01*
%TO.N,+5V*%
X134965000Y-92132500D02*
X144865000Y-92132500D01*
X149765000Y-64899714D02*
X151532214Y-63132500D01*
X151532214Y-63132500D02*
X154765000Y-63132500D01*
X149765000Y-65232500D02*
X149765000Y-64899714D01*
%TO.N,+3V3*%
X145265000Y-88932500D02*
X145265000Y-87732500D01*
X134465000Y-88632500D02*
X136265000Y-90432500D01*
X143265000Y-90932500D02*
X145265000Y-88932500D01*
X134465000Y-88232500D02*
X134465000Y-88632500D01*
X136265000Y-90432500D02*
X136765000Y-90932500D01*
X136765000Y-90932500D02*
X143265000Y-90932500D01*
%TO.N,VCOM*%
X157465000Y-107682500D02*
X157465000Y-109932500D01*
X157465000Y-113682500D02*
X155215000Y-115932500D01*
D17*
%TO.N,/MCU/NRST*%
X134215000Y-78932500D02*
X133465000Y-78182500D01*
X133465000Y-78182500D02*
X133465000Y-69182500D01*
X133465000Y-69182500D02*
X134715000Y-67932500D01*
%TO.N,SPI1_NSS*%
X140715000Y-87682500D02*
X141465000Y-88432500D01*
X136715000Y-86432500D02*
X136715000Y-87182500D01*
X137215000Y-87682500D02*
X140715000Y-87682500D01*
X136715000Y-87182500D02*
X137215000Y-87682500D01*
D16*
%TO.N,+3V3*%
X149465000Y-80432500D02*
X150215000Y-79682500D01*
X150215000Y-75932500D02*
X150215000Y-75182500D01*
X150215000Y-79682500D02*
X150215000Y-75932500D01*
%TO.N,+5V*%
X160715000Y-77932500D02*
X160715000Y-67932500D01*
X157965000Y-80682500D02*
X160715000Y-77932500D01*
%TD*%
M02*
