%TF.GenerationSoftware,KiCad,Pcbnew,9.0.0*%
%TF.CreationDate,2025-02-25T08:09:40-06:00*%
%TF.ProjectId,Fatigue Test Board,46617469-6775-4652-9054-65737420426f,-*%
%TF.SameCoordinates,Original*%
%TF.FileFunction,Paste,Top*%
%TF.FilePolarity,Positive*%
%FSLAX46Y46*%
G04 Gerber Fmt 4.6, Leading zero omitted, Abs format (unit mm)*
G04 Created by KiCad (PCBNEW 9.0.0) date 2025-02-25 08:09:40*
%MOMM*%
%LPD*%
G01*
G04 APERTURE LIST*
G04 Aperture macros list*
%AMRoundRect*
0 Rectangle with rounded corners*
0 $1 Rounding radius*
0 $2 $3 $4 $5 $6 $7 $8 $9 X,Y pos of 4 corners*
0 Add a 4 corners polygon primitive as box body*
4,1,4,$2,$3,$4,$5,$6,$7,$8,$9,$2,$3,0*
0 Add four circle primitives for the rounded corners*
1,1,$1+$1,$2,$3*
1,1,$1+$1,$4,$5*
1,1,$1+$1,$6,$7*
1,1,$1+$1,$8,$9*
0 Add four rect primitives between the rounded corners*
20,1,$1+$1,$2,$3,$4,$5,0*
20,1,$1+$1,$4,$5,$6,$7,0*
20,1,$1+$1,$6,$7,$8,$9,0*
20,1,$1+$1,$8,$9,$2,$3,0*%
%AMFreePoly0*
4,1,9,3.862500,-0.866500,0.737500,-0.866500,0.737500,-0.450000,-0.737500,-0.450000,-0.737500,0.450000,0.737500,0.450000,0.737500,0.866500,3.862500,0.866500,3.862500,-0.866500,3.862500,-0.866500,$1*%
G04 Aperture macros list end*
%ADD10RoundRect,0.237500X0.300000X0.237500X-0.300000X0.237500X-0.300000X-0.237500X0.300000X-0.237500X0*%
%ADD11RoundRect,0.237500X-0.237500X0.287500X-0.237500X-0.287500X0.237500X-0.287500X0.237500X0.287500X0*%
%ADD12RoundRect,0.237500X-0.250000X-0.237500X0.250000X-0.237500X0.250000X0.237500X-0.250000X0.237500X0*%
%ADD13RoundRect,0.237500X-0.300000X-0.237500X0.300000X-0.237500X0.300000X0.237500X-0.300000X0.237500X0*%
%ADD14RoundRect,0.237500X-0.237500X0.300000X-0.237500X-0.300000X0.237500X-0.300000X0.237500X0.300000X0*%
%ADD15R,1.140000X0.600000*%
%ADD16R,1.140000X0.300000*%
%ADD17RoundRect,0.237500X0.237500X-0.300000X0.237500X0.300000X-0.237500X0.300000X-0.237500X-0.300000X0*%
%ADD18RoundRect,0.237500X-0.237500X0.250000X-0.237500X-0.250000X0.237500X-0.250000X0.237500X0.250000X0*%
%ADD19RoundRect,0.150000X-0.512500X-0.150000X0.512500X-0.150000X0.512500X0.150000X-0.512500X0.150000X0*%
%ADD20RoundRect,0.150000X0.587500X0.150000X-0.587500X0.150000X-0.587500X-0.150000X0.587500X-0.150000X0*%
%ADD21RoundRect,0.237500X0.250000X0.237500X-0.250000X0.237500X-0.250000X-0.237500X0.250000X-0.237500X0*%
%ADD22RoundRect,0.237500X-0.287500X-0.237500X0.287500X-0.237500X0.287500X0.237500X-0.287500X0.237500X0*%
%ADD23R,0.750000X0.400000*%
%ADD24RoundRect,0.155000X-0.212500X-0.155000X0.212500X-0.155000X0.212500X0.155000X-0.212500X0.155000X0*%
%ADD25RoundRect,0.250000X0.337500X0.475000X-0.337500X0.475000X-0.337500X-0.475000X0.337500X-0.475000X0*%
%ADD26R,1.400000X1.200000*%
%ADD27RoundRect,0.075000X-0.662500X-0.075000X0.662500X-0.075000X0.662500X0.075000X-0.662500X0.075000X0*%
%ADD28RoundRect,0.075000X-0.075000X-0.662500X0.075000X-0.662500X0.075000X0.662500X-0.075000X0.662500X0*%
%ADD29RoundRect,0.155000X0.155000X-0.212500X0.155000X0.212500X-0.155000X0.212500X-0.155000X-0.212500X0*%
%ADD30RoundRect,0.237500X0.237500X-0.250000X0.237500X0.250000X-0.237500X0.250000X-0.237500X-0.250000X0*%
%ADD31RoundRect,0.150000X0.150000X-0.512500X0.150000X0.512500X-0.150000X0.512500X-0.150000X-0.512500X0*%
%ADD32RoundRect,0.237500X0.287500X0.237500X-0.287500X0.237500X-0.287500X-0.237500X0.287500X-0.237500X0*%
%ADD33RoundRect,0.035000X0.105000X-0.700000X0.105000X0.700000X-0.105000X0.700000X-0.105000X-0.700000X0*%
%ADD34RoundRect,0.155000X-0.155000X0.212500X-0.155000X-0.212500X0.155000X-0.212500X0.155000X0.212500X0*%
%ADD35RoundRect,0.250000X0.475000X-0.337500X0.475000X0.337500X-0.475000X0.337500X-0.475000X-0.337500X0*%
%ADD36RoundRect,0.112500X-0.187500X-0.112500X0.187500X-0.112500X0.187500X0.112500X-0.187500X0.112500X0*%
%ADD37RoundRect,0.155000X0.212500X0.155000X-0.212500X0.155000X-0.212500X-0.155000X0.212500X-0.155000X0*%
%ADD38RoundRect,0.225000X-0.425000X-0.225000X0.425000X-0.225000X0.425000X0.225000X-0.425000X0.225000X0*%
%ADD39FreePoly0,0.000000*%
%ADD40R,4.000000X1.900000*%
G04 APERTURE END LIST*
D10*
%TO.C,C207*%
X128102500Y-81932500D03*
X129827500Y-81932500D03*
%TD*%
%TO.C,C206*%
X128102500Y-80182500D03*
X129827500Y-80182500D03*
%TD*%
D11*
%TO.C,L200*%
X131557500Y-81910000D03*
X131557500Y-80160000D03*
%TD*%
D12*
%TO.C,R300*%
X140827500Y-119932500D03*
X142652500Y-119932500D03*
%TD*%
D13*
%TO.C,C201*%
X136352500Y-72182500D03*
X138077500Y-72182500D03*
%TD*%
D14*
%TO.C,C307*%
X136577500Y-97470000D03*
X136577500Y-99195000D03*
%TD*%
D15*
%TO.C,J200*%
X164107500Y-80632500D03*
X164107500Y-79832500D03*
D16*
X164107500Y-78682500D03*
X164107500Y-77682500D03*
X164107500Y-77182500D03*
X164107500Y-76182500D03*
D15*
X164107500Y-74232500D03*
X164107500Y-75032500D03*
D16*
X164107500Y-75682500D03*
X164107500Y-76682500D03*
X164107500Y-78182500D03*
X164107500Y-79182500D03*
%TD*%
D17*
%TO.C,C310*%
X131690000Y-91982500D03*
X131690000Y-90257500D03*
%TD*%
D14*
%TO.C,C306*%
X134827500Y-97470000D03*
X134827500Y-99195000D03*
%TD*%
D18*
%TO.C,R306*%
X137627500Y-106127500D03*
X137627500Y-107952500D03*
%TD*%
D14*
%TO.C,C312*%
X134827500Y-101970000D03*
X134827500Y-103695000D03*
%TD*%
D18*
%TO.C,R304*%
X138385000Y-114252500D03*
X138385000Y-116077500D03*
%TD*%
D10*
%TO.C,C203*%
X143077500Y-84682500D03*
X141352500Y-84682500D03*
%TD*%
D19*
%TO.C,U301*%
X138860000Y-110415000D03*
X138860000Y-111365000D03*
X138860000Y-112315000D03*
X141135000Y-112315000D03*
X141135000Y-110415000D03*
%TD*%
D10*
%TO.C,C309*%
X138190000Y-93582500D03*
X136465000Y-93582500D03*
%TD*%
D14*
%TO.C,C205*%
X133465000Y-80207500D03*
X133465000Y-81932500D03*
%TD*%
D20*
%TO.C,U303*%
X132225000Y-103895000D03*
X132225000Y-101995000D03*
X130350000Y-102945000D03*
%TD*%
D14*
%TO.C,C313*%
X136577500Y-101970000D03*
X136577500Y-103695000D03*
%TD*%
D12*
%TO.C,R200*%
X167015000Y-83652500D03*
X168840000Y-83652500D03*
%TD*%
D14*
%TO.C,C102*%
X157677500Y-83652500D03*
X157677500Y-85377500D03*
%TD*%
D10*
%TO.C,C311*%
X132302500Y-105945000D03*
X130577500Y-105945000D03*
%TD*%
D21*
%TO.C,R203*%
X136790000Y-85182500D03*
X134965000Y-85182500D03*
%TD*%
D22*
%TO.C,D100*%
X153577500Y-70932500D03*
X155327500Y-70932500D03*
%TD*%
D23*
%TO.C,FL200*%
X155677500Y-77802500D03*
X155677500Y-77002500D03*
X153827500Y-77002500D03*
X153827500Y-77802500D03*
%TD*%
D19*
%TO.C,U201*%
X158540000Y-76452500D03*
X158540000Y-77402500D03*
X158540000Y-78352500D03*
X160815000Y-78352500D03*
X160815000Y-77402500D03*
X160815000Y-76452500D03*
%TD*%
D14*
%TO.C,C300*%
X142965000Y-110502500D03*
X142965000Y-112227500D03*
%TD*%
D24*
%TO.C,C301*%
X139817500Y-113915000D03*
X140952500Y-113915000D03*
%TD*%
D12*
%TO.C,R303*%
X141472500Y-116165000D03*
X143297500Y-116165000D03*
%TD*%
D25*
%TO.C,C106*%
X151740000Y-61682500D03*
X149665000Y-61682500D03*
%TD*%
D26*
%TO.C,Y200*%
X129065000Y-73082500D03*
X126865000Y-73082500D03*
X126865000Y-74782500D03*
X129065000Y-74782500D03*
%TD*%
D27*
%TO.C,U200*%
X135640000Y-75682500D03*
X135640000Y-76182500D03*
X135640000Y-76682500D03*
X135640000Y-77182500D03*
X135640000Y-77682500D03*
X135640000Y-78182500D03*
X135640000Y-78682500D03*
X135640000Y-79182500D03*
X135640000Y-79682500D03*
X135640000Y-80182500D03*
X135640000Y-80682500D03*
X135640000Y-81182500D03*
D28*
X137052500Y-82595000D03*
X137552500Y-82595000D03*
X138052500Y-82595000D03*
X138552500Y-82595000D03*
X139052500Y-82595000D03*
X139552500Y-82595000D03*
X140052500Y-82595000D03*
X140552500Y-82595000D03*
X141052500Y-82595000D03*
X141552500Y-82595000D03*
X142052500Y-82595000D03*
X142552500Y-82595000D03*
D27*
X143965000Y-81182500D03*
X143965000Y-80682500D03*
X143965000Y-80182500D03*
X143965000Y-79682500D03*
X143965000Y-79182500D03*
X143965000Y-78682500D03*
X143965000Y-78182500D03*
X143965000Y-77682500D03*
X143965000Y-77182500D03*
X143965000Y-76682500D03*
X143965000Y-76182500D03*
X143965000Y-75682500D03*
D28*
X142552500Y-74270000D03*
X142052500Y-74270000D03*
X141552500Y-74270000D03*
X141052500Y-74270000D03*
X140552500Y-74270000D03*
X140052500Y-74270000D03*
X139552500Y-74270000D03*
X139052500Y-74270000D03*
X138552500Y-74270000D03*
X138052500Y-74270000D03*
X137552500Y-74270000D03*
X137052500Y-74270000D03*
%TD*%
D29*
%TO.C,C302*%
X144240000Y-120000000D03*
X144240000Y-118865000D03*
%TD*%
D12*
%TO.C,R301*%
X145827500Y-119932500D03*
X147652500Y-119932500D03*
%TD*%
D18*
%TO.C,R310*%
X141627500Y-106127500D03*
X141627500Y-107952500D03*
%TD*%
D30*
%TO.C,R309*%
X145490000Y-115932500D03*
X145490000Y-114107500D03*
%TD*%
D12*
%TO.C,R307*%
X149340000Y-119932500D03*
X151165000Y-119932500D03*
%TD*%
%TO.C,R102*%
X152927500Y-108932500D03*
X154752500Y-108932500D03*
%TD*%
D31*
%TO.C,U102*%
X149802500Y-66207500D03*
X150752500Y-66207500D03*
X151702500Y-66207500D03*
X151702500Y-63932500D03*
X149802500Y-63932500D03*
%TD*%
D32*
%TO.C,L100*%
X159552500Y-82015000D03*
X157802500Y-82015000D03*
%TD*%
D21*
%TO.C,R311*%
X131690000Y-93620000D03*
X129865000Y-93620000D03*
%TD*%
D33*
%TO.C,U302*%
X138327500Y-101582500D03*
X138827500Y-101582500D03*
X139327500Y-101582500D03*
X139827500Y-101582500D03*
X140327500Y-101582500D03*
X140327500Y-97282500D03*
X139827500Y-97282500D03*
X139327500Y-97282500D03*
X138827500Y-97282500D03*
X138327500Y-97282500D03*
%TD*%
D10*
%TO.C,C210*%
X159540000Y-74402500D03*
X157815000Y-74402500D03*
%TD*%
D19*
%TO.C,U101*%
X154615000Y-105070000D03*
X154615000Y-106020000D03*
X154615000Y-106970000D03*
X156890000Y-106970000D03*
X156890000Y-105070000D03*
%TD*%
D34*
%TO.C,C303*%
X139885000Y-116097500D03*
X139885000Y-117232500D03*
%TD*%
D25*
%TO.C,C107*%
X151790000Y-68432500D03*
X149715000Y-68432500D03*
%TD*%
D24*
%TO.C,C305*%
X139060000Y-105877500D03*
X140195000Y-105877500D03*
%TD*%
D25*
%TO.C,C103*%
X156490000Y-95682500D03*
X154415000Y-95682500D03*
%TD*%
D17*
%TO.C,C204*%
X133465000Y-75407500D03*
X133465000Y-73682500D03*
%TD*%
D21*
%TO.C,R202*%
X141627500Y-72182500D03*
X139802500Y-72182500D03*
%TD*%
D13*
%TO.C,C314*%
X147465000Y-111682500D03*
X149190000Y-111682500D03*
%TD*%
D30*
%TO.C,R105*%
X147702500Y-65595000D03*
X147702500Y-63770000D03*
%TD*%
D21*
%TO.C,R204*%
X128290000Y-77932500D03*
X126465000Y-77932500D03*
%TD*%
D14*
%TO.C,C100*%
X159002500Y-105157500D03*
X159002500Y-106882500D03*
%TD*%
D18*
%TO.C,R100*%
X156590000Y-91682500D03*
X156590000Y-93507500D03*
%TD*%
D17*
%TO.C,C200*%
X131465000Y-75432500D03*
X131465000Y-73707500D03*
%TD*%
%TO.C,C108*%
X144202500Y-65545000D03*
X144202500Y-63820000D03*
%TD*%
D14*
%TO.C,C101*%
X159677500Y-83652500D03*
X159677500Y-85377500D03*
%TD*%
D18*
%TO.C,R103*%
X145952500Y-63770000D03*
X145952500Y-65595000D03*
%TD*%
D35*
%TO.C,C104*%
X151952500Y-101125000D03*
X151952500Y-99050000D03*
%TD*%
D24*
%TO.C,C209*%
X126310000Y-76432500D03*
X127445000Y-76432500D03*
%TD*%
D36*
%TO.C,D300*%
X140802500Y-123182500D03*
X142902500Y-123182500D03*
%TD*%
D25*
%TO.C,C105*%
X154790000Y-111182500D03*
X152715000Y-111182500D03*
%TD*%
D37*
%TO.C,C208*%
X129782500Y-76432500D03*
X128647500Y-76432500D03*
%TD*%
D31*
%TO.C,U300*%
X147290000Y-115957500D03*
X148240000Y-115957500D03*
X149190000Y-115957500D03*
X149190000Y-113682500D03*
X147290000Y-113682500D03*
%TD*%
D12*
%TO.C,R305*%
X134885000Y-114165000D03*
X136710000Y-114165000D03*
%TD*%
D38*
%TO.C,U100*%
X154252500Y-97932500D03*
D39*
X154340000Y-99432500D03*
D38*
X154252500Y-100932500D03*
%TD*%
D40*
%TO.C,L101*%
X155202500Y-65382500D03*
X155202500Y-68482500D03*
%TD*%
D12*
%TO.C,R201*%
X167015000Y-71152500D03*
X168840000Y-71152500D03*
%TD*%
D17*
%TO.C,C202*%
X145965000Y-75545000D03*
X145965000Y-73820000D03*
%TD*%
D18*
%TO.C,R312*%
X137965000Y-87270000D03*
X137965000Y-89095000D03*
%TD*%
D21*
%TO.C,R302*%
X151152500Y-117682500D03*
X149327500Y-117682500D03*
%TD*%
D18*
%TO.C,R205*%
X148665000Y-75020000D03*
X148665000Y-76845000D03*
%TD*%
D29*
%TO.C,C304*%
X133385000Y-114165000D03*
X133385000Y-113030000D03*
%TD*%
D18*
%TO.C,R308*%
X150990000Y-113770000D03*
X150990000Y-115595000D03*
%TD*%
D12*
%TO.C,R104*%
X149790000Y-70932500D03*
X151615000Y-70932500D03*
%TD*%
%TO.C,R101*%
X156765000Y-108932500D03*
X158590000Y-108932500D03*
%TD*%
D10*
%TO.C,C308*%
X138190000Y-95332500D03*
X136465000Y-95332500D03*
%TD*%
M02*
