%TF.GenerationSoftware,KiCad,Pcbnew,9.0.0*%
%TF.CreationDate,2025-02-25T08:09:40-06:00*%
%TF.ProjectId,Fatigue Test Board,46617469-6775-4652-9054-65737420426f,-*%
%TF.SameCoordinates,Original*%
%TF.FileFunction,Legend,Bot*%
%TF.FilePolarity,Positive*%
%FSLAX46Y46*%
G04 Gerber Fmt 4.6, Leading zero omitted, Abs format (unit mm)*
G04 Created by KiCad (PCBNEW 9.0.0) date 2025-02-25 08:09:40*
%MOMM*%
%LPD*%
G01*
G04 APERTURE LIST*
%ADD10C,0.125000*%
%ADD11C,0.508000*%
G04 APERTURE END LIST*
D10*
X169041668Y-128385978D02*
X169041668Y-128802644D01*
X168386906Y-128802644D02*
X169636906Y-128802644D01*
X169636906Y-128802644D02*
X169636906Y-128207406D01*
X168744049Y-127790739D02*
X168744049Y-127195501D01*
X168386906Y-127909787D02*
X169636906Y-127493120D01*
X169636906Y-127493120D02*
X168386906Y-127076454D01*
X169636906Y-126838358D02*
X169636906Y-126124072D01*
X168386906Y-126481215D02*
X169636906Y-126481215D01*
X168386906Y-125707405D02*
X169636906Y-125707405D01*
X169577382Y-124457406D02*
X169636906Y-124576453D01*
X169636906Y-124576453D02*
X169636906Y-124755025D01*
X169636906Y-124755025D02*
X169577382Y-124933596D01*
X169577382Y-124933596D02*
X169458334Y-125052644D01*
X169458334Y-125052644D02*
X169339287Y-125112167D01*
X169339287Y-125112167D02*
X169101191Y-125171691D01*
X169101191Y-125171691D02*
X168922620Y-125171691D01*
X168922620Y-125171691D02*
X168684525Y-125112167D01*
X168684525Y-125112167D02*
X168565477Y-125052644D01*
X168565477Y-125052644D02*
X168446430Y-124933596D01*
X168446430Y-124933596D02*
X168386906Y-124755025D01*
X168386906Y-124755025D02*
X168386906Y-124635977D01*
X168386906Y-124635977D02*
X168446430Y-124457406D01*
X168446430Y-124457406D02*
X168505953Y-124397882D01*
X168505953Y-124397882D02*
X168922620Y-124397882D01*
X168922620Y-124397882D02*
X168922620Y-124635977D01*
X169636906Y-123862167D02*
X168625001Y-123862167D01*
X168625001Y-123862167D02*
X168505953Y-123802644D01*
X168505953Y-123802644D02*
X168446430Y-123743120D01*
X168446430Y-123743120D02*
X168386906Y-123624072D01*
X168386906Y-123624072D02*
X168386906Y-123385977D01*
X168386906Y-123385977D02*
X168446430Y-123266929D01*
X168446430Y-123266929D02*
X168505953Y-123207406D01*
X168505953Y-123207406D02*
X168625001Y-123147882D01*
X168625001Y-123147882D02*
X169636906Y-123147882D01*
X169041668Y-122552643D02*
X169041668Y-122135977D01*
X168386906Y-121957405D02*
X168386906Y-122552643D01*
X168386906Y-122552643D02*
X169636906Y-122552643D01*
X169636906Y-122552643D02*
X169636906Y-121957405D01*
X168386906Y-120469310D02*
X169636906Y-120469310D01*
X169636906Y-120469310D02*
X168744049Y-120052644D01*
X168744049Y-120052644D02*
X169636906Y-119635977D01*
X169636906Y-119635977D02*
X168386906Y-119635977D01*
X169041668Y-119040739D02*
X169041668Y-118624073D01*
X168386906Y-118445501D02*
X168386906Y-119040739D01*
X168386906Y-119040739D02*
X169636906Y-119040739D01*
X169636906Y-119040739D02*
X169636906Y-118445501D01*
X168744049Y-117969311D02*
X168744049Y-117374073D01*
X168386906Y-118088359D02*
X169636906Y-117671692D01*
X169636906Y-117671692D02*
X168386906Y-117255026D01*
X168446430Y-116897882D02*
X168386906Y-116719311D01*
X168386906Y-116719311D02*
X168386906Y-116421692D01*
X168386906Y-116421692D02*
X168446430Y-116302644D01*
X168446430Y-116302644D02*
X168505953Y-116243120D01*
X168505953Y-116243120D02*
X168625001Y-116183597D01*
X168625001Y-116183597D02*
X168744049Y-116183597D01*
X168744049Y-116183597D02*
X168863096Y-116243120D01*
X168863096Y-116243120D02*
X168922620Y-116302644D01*
X168922620Y-116302644D02*
X168982144Y-116421692D01*
X168982144Y-116421692D02*
X169041668Y-116659787D01*
X169041668Y-116659787D02*
X169101191Y-116778835D01*
X169101191Y-116778835D02*
X169160715Y-116838358D01*
X169160715Y-116838358D02*
X169279763Y-116897882D01*
X169279763Y-116897882D02*
X169398810Y-116897882D01*
X169398810Y-116897882D02*
X169517858Y-116838358D01*
X169517858Y-116838358D02*
X169577382Y-116778835D01*
X169577382Y-116778835D02*
X169636906Y-116659787D01*
X169636906Y-116659787D02*
X169636906Y-116362168D01*
X169636906Y-116362168D02*
X169577382Y-116183597D01*
X169636906Y-115647882D02*
X168625001Y-115647882D01*
X168625001Y-115647882D02*
X168505953Y-115588359D01*
X168505953Y-115588359D02*
X168446430Y-115528835D01*
X168446430Y-115528835D02*
X168386906Y-115409787D01*
X168386906Y-115409787D02*
X168386906Y-115171692D01*
X168386906Y-115171692D02*
X168446430Y-115052644D01*
X168446430Y-115052644D02*
X168505953Y-114993121D01*
X168505953Y-114993121D02*
X168625001Y-114933597D01*
X168625001Y-114933597D02*
X169636906Y-114933597D01*
X168386906Y-113624073D02*
X168982144Y-114040739D01*
X168386906Y-114338358D02*
X169636906Y-114338358D01*
X169636906Y-114338358D02*
X169636906Y-113862168D01*
X169636906Y-113862168D02*
X169577382Y-113743120D01*
X169577382Y-113743120D02*
X169517858Y-113683597D01*
X169517858Y-113683597D02*
X169398810Y-113624073D01*
X169398810Y-113624073D02*
X169220239Y-113624073D01*
X169220239Y-113624073D02*
X169101191Y-113683597D01*
X169101191Y-113683597D02*
X169041668Y-113743120D01*
X169041668Y-113743120D02*
X168982144Y-113862168D01*
X168982144Y-113862168D02*
X168982144Y-114338358D01*
X169041668Y-113088358D02*
X169041668Y-112671692D01*
X168386906Y-112493120D02*
X168386906Y-113088358D01*
X168386906Y-113088358D02*
X169636906Y-113088358D01*
X169636906Y-113088358D02*
X169636906Y-112493120D01*
X168386906Y-111957406D02*
X169636906Y-111957406D01*
X169636906Y-111957406D02*
X168744049Y-111540740D01*
X168744049Y-111540740D02*
X169636906Y-111124073D01*
X169636906Y-111124073D02*
X168386906Y-111124073D01*
X169041668Y-110528835D02*
X169041668Y-110112169D01*
X168386906Y-109933597D02*
X168386906Y-110528835D01*
X168386906Y-110528835D02*
X169636906Y-110528835D01*
X169636906Y-110528835D02*
X169636906Y-109933597D01*
X168386906Y-109397883D02*
X169636906Y-109397883D01*
X169636906Y-109397883D02*
X168386906Y-108683598D01*
X168386906Y-108683598D02*
X169636906Y-108683598D01*
X169636906Y-108266931D02*
X169636906Y-107552645D01*
X168386906Y-107909788D02*
X169636906Y-107909788D01*
X169041668Y-105766931D02*
X168982144Y-105588359D01*
X168982144Y-105588359D02*
X168922620Y-105528836D01*
X168922620Y-105528836D02*
X168803572Y-105469312D01*
X168803572Y-105469312D02*
X168625001Y-105469312D01*
X168625001Y-105469312D02*
X168505953Y-105528836D01*
X168505953Y-105528836D02*
X168446430Y-105588359D01*
X168446430Y-105588359D02*
X168386906Y-105707407D01*
X168386906Y-105707407D02*
X168386906Y-106183597D01*
X168386906Y-106183597D02*
X169636906Y-106183597D01*
X169636906Y-106183597D02*
X169636906Y-105766931D01*
X169636906Y-105766931D02*
X169577382Y-105647883D01*
X169577382Y-105647883D02*
X169517858Y-105588359D01*
X169517858Y-105588359D02*
X169398810Y-105528836D01*
X169398810Y-105528836D02*
X169279763Y-105528836D01*
X169279763Y-105528836D02*
X169160715Y-105588359D01*
X169160715Y-105588359D02*
X169101191Y-105647883D01*
X169101191Y-105647883D02*
X169041668Y-105766931D01*
X169041668Y-105766931D02*
X169041668Y-106183597D01*
X169636906Y-104695502D02*
X169636906Y-104457407D01*
X169636906Y-104457407D02*
X169577382Y-104338359D01*
X169577382Y-104338359D02*
X169458334Y-104219312D01*
X169458334Y-104219312D02*
X169220239Y-104159788D01*
X169220239Y-104159788D02*
X168803572Y-104159788D01*
X168803572Y-104159788D02*
X168565477Y-104219312D01*
X168565477Y-104219312D02*
X168446430Y-104338359D01*
X168446430Y-104338359D02*
X168386906Y-104457407D01*
X168386906Y-104457407D02*
X168386906Y-104695502D01*
X168386906Y-104695502D02*
X168446430Y-104814550D01*
X168446430Y-104814550D02*
X168565477Y-104933597D01*
X168565477Y-104933597D02*
X168803572Y-104993121D01*
X168803572Y-104993121D02*
X169220239Y-104993121D01*
X169220239Y-104993121D02*
X169458334Y-104933597D01*
X169458334Y-104933597D02*
X169577382Y-104814550D01*
X169577382Y-104814550D02*
X169636906Y-104695502D01*
X168744049Y-103683597D02*
X168744049Y-103088359D01*
X168386906Y-103802645D02*
X169636906Y-103385978D01*
X169636906Y-103385978D02*
X168386906Y-102969312D01*
X168386906Y-101838359D02*
X168982144Y-102255025D01*
X168386906Y-102552644D02*
X169636906Y-102552644D01*
X169636906Y-102552644D02*
X169636906Y-102076454D01*
X169636906Y-102076454D02*
X169577382Y-101957406D01*
X169577382Y-101957406D02*
X169517858Y-101897883D01*
X169517858Y-101897883D02*
X169398810Y-101838359D01*
X169398810Y-101838359D02*
X169220239Y-101838359D01*
X169220239Y-101838359D02*
X169101191Y-101897883D01*
X169101191Y-101897883D02*
X169041668Y-101957406D01*
X169041668Y-101957406D02*
X168982144Y-102076454D01*
X168982144Y-102076454D02*
X168982144Y-102552644D01*
X168386906Y-101302644D02*
X169636906Y-101302644D01*
X169636906Y-101302644D02*
X169636906Y-101005025D01*
X169636906Y-101005025D02*
X169577382Y-100826454D01*
X169577382Y-100826454D02*
X169458334Y-100707406D01*
X169458334Y-100707406D02*
X169339287Y-100647883D01*
X169339287Y-100647883D02*
X169101191Y-100588359D01*
X169101191Y-100588359D02*
X168922620Y-100588359D01*
X168922620Y-100588359D02*
X168684525Y-100647883D01*
X168684525Y-100647883D02*
X168565477Y-100707406D01*
X168565477Y-100707406D02*
X168446430Y-100826454D01*
X168446430Y-100826454D02*
X168386906Y-101005025D01*
X168386906Y-101005025D02*
X168386906Y-101302644D01*
X168863096Y-99100263D02*
X168863096Y-98147883D01*
X169517858Y-96659787D02*
X169577382Y-96600263D01*
X169577382Y-96600263D02*
X169636906Y-96481216D01*
X169636906Y-96481216D02*
X169636906Y-96183597D01*
X169636906Y-96183597D02*
X169577382Y-96064549D01*
X169577382Y-96064549D02*
X169517858Y-96005025D01*
X169517858Y-96005025D02*
X169398810Y-95945502D01*
X169398810Y-95945502D02*
X169279763Y-95945502D01*
X169279763Y-95945502D02*
X169101191Y-96005025D01*
X169101191Y-96005025D02*
X168386906Y-96719311D01*
X168386906Y-96719311D02*
X168386906Y-95945502D01*
X169636906Y-95171692D02*
X169636906Y-95052645D01*
X169636906Y-95052645D02*
X169577382Y-94933597D01*
X169577382Y-94933597D02*
X169517858Y-94874073D01*
X169517858Y-94874073D02*
X169398810Y-94814549D01*
X169398810Y-94814549D02*
X169160715Y-94755026D01*
X169160715Y-94755026D02*
X168863096Y-94755026D01*
X168863096Y-94755026D02*
X168625001Y-94814549D01*
X168625001Y-94814549D02*
X168505953Y-94874073D01*
X168505953Y-94874073D02*
X168446430Y-94933597D01*
X168446430Y-94933597D02*
X168386906Y-95052645D01*
X168386906Y-95052645D02*
X168386906Y-95171692D01*
X168386906Y-95171692D02*
X168446430Y-95290740D01*
X168446430Y-95290740D02*
X168505953Y-95350264D01*
X168505953Y-95350264D02*
X168625001Y-95409787D01*
X168625001Y-95409787D02*
X168863096Y-95469311D01*
X168863096Y-95469311D02*
X169160715Y-95469311D01*
X169160715Y-95469311D02*
X169398810Y-95409787D01*
X169398810Y-95409787D02*
X169517858Y-95350264D01*
X169517858Y-95350264D02*
X169577382Y-95290740D01*
X169577382Y-95290740D02*
X169636906Y-95171692D01*
X169517858Y-94278835D02*
X169577382Y-94219311D01*
X169577382Y-94219311D02*
X169636906Y-94100264D01*
X169636906Y-94100264D02*
X169636906Y-93802645D01*
X169636906Y-93802645D02*
X169577382Y-93683597D01*
X169577382Y-93683597D02*
X169517858Y-93624073D01*
X169517858Y-93624073D02*
X169398810Y-93564550D01*
X169398810Y-93564550D02*
X169279763Y-93564550D01*
X169279763Y-93564550D02*
X169101191Y-93624073D01*
X169101191Y-93624073D02*
X168386906Y-94338359D01*
X168386906Y-94338359D02*
X168386906Y-93564550D01*
X169636906Y-92433597D02*
X169636906Y-93028835D01*
X169636906Y-93028835D02*
X169041668Y-93088359D01*
X169041668Y-93088359D02*
X169101191Y-93028835D01*
X169101191Y-93028835D02*
X169160715Y-92909788D01*
X169160715Y-92909788D02*
X169160715Y-92612169D01*
X169160715Y-92612169D02*
X169101191Y-92493121D01*
X169101191Y-92493121D02*
X169041668Y-92433597D01*
X169041668Y-92433597D02*
X168922620Y-92374074D01*
X168922620Y-92374074D02*
X168625001Y-92374074D01*
X168625001Y-92374074D02*
X168505953Y-92433597D01*
X168505953Y-92433597D02*
X168446430Y-92493121D01*
X168446430Y-92493121D02*
X168386906Y-92612169D01*
X168386906Y-92612169D02*
X168386906Y-92909788D01*
X168386906Y-92909788D02*
X168446430Y-93028835D01*
X168446430Y-93028835D02*
X168505953Y-93088359D01*
X167624476Y-128445502D02*
X166731619Y-128445502D01*
X166731619Y-128445502D02*
X166553047Y-128505025D01*
X166553047Y-128505025D02*
X166434000Y-128624073D01*
X166434000Y-128624073D02*
X166374476Y-128802644D01*
X166374476Y-128802644D02*
X166374476Y-128921692D01*
X167624476Y-127612168D02*
X167624476Y-127374073D01*
X167624476Y-127374073D02*
X167564952Y-127255025D01*
X167564952Y-127255025D02*
X167445904Y-127135978D01*
X167445904Y-127135978D02*
X167207809Y-127076454D01*
X167207809Y-127076454D02*
X166791142Y-127076454D01*
X166791142Y-127076454D02*
X166553047Y-127135978D01*
X166553047Y-127135978D02*
X166434000Y-127255025D01*
X166434000Y-127255025D02*
X166374476Y-127374073D01*
X166374476Y-127374073D02*
X166374476Y-127612168D01*
X166374476Y-127612168D02*
X166434000Y-127731216D01*
X166434000Y-127731216D02*
X166553047Y-127850263D01*
X166553047Y-127850263D02*
X166791142Y-127909787D01*
X166791142Y-127909787D02*
X167207809Y-127909787D01*
X167207809Y-127909787D02*
X167445904Y-127850263D01*
X167445904Y-127850263D02*
X167564952Y-127731216D01*
X167564952Y-127731216D02*
X167624476Y-127612168D01*
X166434000Y-126600263D02*
X166374476Y-126421692D01*
X166374476Y-126421692D02*
X166374476Y-126124073D01*
X166374476Y-126124073D02*
X166434000Y-126005025D01*
X166434000Y-126005025D02*
X166493523Y-125945501D01*
X166493523Y-125945501D02*
X166612571Y-125885978D01*
X166612571Y-125885978D02*
X166731619Y-125885978D01*
X166731619Y-125885978D02*
X166850666Y-125945501D01*
X166850666Y-125945501D02*
X166910190Y-126005025D01*
X166910190Y-126005025D02*
X166969714Y-126124073D01*
X166969714Y-126124073D02*
X167029238Y-126362168D01*
X167029238Y-126362168D02*
X167088761Y-126481216D01*
X167088761Y-126481216D02*
X167148285Y-126540739D01*
X167148285Y-126540739D02*
X167267333Y-126600263D01*
X167267333Y-126600263D02*
X167386380Y-126600263D01*
X167386380Y-126600263D02*
X167505428Y-126540739D01*
X167505428Y-126540739D02*
X167564952Y-126481216D01*
X167564952Y-126481216D02*
X167624476Y-126362168D01*
X167624476Y-126362168D02*
X167624476Y-126064549D01*
X167624476Y-126064549D02*
X167564952Y-125885978D01*
X167624476Y-125350263D02*
X166612571Y-125350263D01*
X166612571Y-125350263D02*
X166493523Y-125290740D01*
X166493523Y-125290740D02*
X166434000Y-125231216D01*
X166434000Y-125231216D02*
X166374476Y-125112168D01*
X166374476Y-125112168D02*
X166374476Y-124874073D01*
X166374476Y-124874073D02*
X166434000Y-124755025D01*
X166434000Y-124755025D02*
X166493523Y-124695502D01*
X166493523Y-124695502D02*
X166612571Y-124635978D01*
X166612571Y-124635978D02*
X167624476Y-124635978D01*
X167029238Y-124040739D02*
X167029238Y-123624073D01*
X166374476Y-123445501D02*
X166374476Y-124040739D01*
X166374476Y-124040739D02*
X167624476Y-124040739D01*
X167624476Y-124040739D02*
X167624476Y-123445501D01*
X166493523Y-121243121D02*
X166434000Y-121302645D01*
X166434000Y-121302645D02*
X166374476Y-121481216D01*
X166374476Y-121481216D02*
X166374476Y-121600264D01*
X166374476Y-121600264D02*
X166434000Y-121778835D01*
X166434000Y-121778835D02*
X166553047Y-121897883D01*
X166553047Y-121897883D02*
X166672095Y-121957406D01*
X166672095Y-121957406D02*
X166910190Y-122016930D01*
X166910190Y-122016930D02*
X167088761Y-122016930D01*
X167088761Y-122016930D02*
X167326857Y-121957406D01*
X167326857Y-121957406D02*
X167445904Y-121897883D01*
X167445904Y-121897883D02*
X167564952Y-121778835D01*
X167564952Y-121778835D02*
X167624476Y-121600264D01*
X167624476Y-121600264D02*
X167624476Y-121481216D01*
X167624476Y-121481216D02*
X167564952Y-121302645D01*
X167564952Y-121302645D02*
X167505428Y-121243121D01*
X166731619Y-120766930D02*
X166731619Y-120171692D01*
X166374476Y-120885978D02*
X167624476Y-120469311D01*
X167624476Y-120469311D02*
X166374476Y-120052645D01*
X167624476Y-119814549D02*
X166374476Y-119397882D01*
X166374476Y-119397882D02*
X167624476Y-118981216D01*
X166731619Y-118624072D02*
X166731619Y-118028834D01*
X166374476Y-118743120D02*
X167624476Y-118326453D01*
X167624476Y-118326453D02*
X166374476Y-117909787D01*
X167624476Y-117612167D02*
X167624476Y-116778834D01*
X167624476Y-116778834D02*
X166374476Y-117612167D01*
X166374476Y-117612167D02*
X166374476Y-116778834D01*
X167624476Y-116064548D02*
X167624476Y-115826453D01*
X167624476Y-115826453D02*
X167564952Y-115707405D01*
X167564952Y-115707405D02*
X167445904Y-115588358D01*
X167445904Y-115588358D02*
X167207809Y-115528834D01*
X167207809Y-115528834D02*
X166791142Y-115528834D01*
X166791142Y-115528834D02*
X166553047Y-115588358D01*
X166553047Y-115588358D02*
X166434000Y-115707405D01*
X166434000Y-115707405D02*
X166374476Y-115826453D01*
X166374476Y-115826453D02*
X166374476Y-116064548D01*
X166374476Y-116064548D02*
X166434000Y-116183596D01*
X166434000Y-116183596D02*
X166553047Y-116302643D01*
X166553047Y-116302643D02*
X166791142Y-116362167D01*
X166791142Y-116362167D02*
X167207809Y-116362167D01*
X167207809Y-116362167D02*
X167445904Y-116302643D01*
X167445904Y-116302643D02*
X167564952Y-116183596D01*
X167564952Y-116183596D02*
X167624476Y-116064548D01*
X166434000Y-115052643D02*
X166374476Y-114874072D01*
X166374476Y-114874072D02*
X166374476Y-114576453D01*
X166374476Y-114576453D02*
X166434000Y-114457405D01*
X166434000Y-114457405D02*
X166493523Y-114397881D01*
X166493523Y-114397881D02*
X166612571Y-114338358D01*
X166612571Y-114338358D02*
X166731619Y-114338358D01*
X166731619Y-114338358D02*
X166850666Y-114397881D01*
X166850666Y-114397881D02*
X166910190Y-114457405D01*
X166910190Y-114457405D02*
X166969714Y-114576453D01*
X166969714Y-114576453D02*
X167029238Y-114814548D01*
X167029238Y-114814548D02*
X167088761Y-114933596D01*
X167088761Y-114933596D02*
X167148285Y-114993119D01*
X167148285Y-114993119D02*
X167267333Y-115052643D01*
X167267333Y-115052643D02*
X167386380Y-115052643D01*
X167386380Y-115052643D02*
X167505428Y-114993119D01*
X167505428Y-114993119D02*
X167564952Y-114933596D01*
X167564952Y-114933596D02*
X167624476Y-114814548D01*
X167624476Y-114814548D02*
X167624476Y-114516929D01*
X167624476Y-114516929D02*
X167564952Y-114338358D01*
X167624476Y-112493120D02*
X166731619Y-112493120D01*
X166731619Y-112493120D02*
X166553047Y-112552643D01*
X166553047Y-112552643D02*
X166434000Y-112671691D01*
X166434000Y-112671691D02*
X166374476Y-112850262D01*
X166374476Y-112850262D02*
X166374476Y-112969310D01*
X166374476Y-111183596D02*
X166969714Y-111600262D01*
X166374476Y-111897881D02*
X167624476Y-111897881D01*
X167624476Y-111897881D02*
X167624476Y-111421691D01*
X167624476Y-111421691D02*
X167564952Y-111302643D01*
X167564952Y-111302643D02*
X167505428Y-111243120D01*
X167505428Y-111243120D02*
X167386380Y-111183596D01*
X167386380Y-111183596D02*
X167207809Y-111183596D01*
X167207809Y-111183596D02*
X167088761Y-111243120D01*
X167088761Y-111243120D02*
X167029238Y-111302643D01*
X167029238Y-111302643D02*
X166969714Y-111421691D01*
X166969714Y-111421691D02*
X166969714Y-111897881D01*
X166493523Y-110647881D02*
X166434000Y-110588358D01*
X166434000Y-110588358D02*
X166374476Y-110647881D01*
X166374476Y-110647881D02*
X166434000Y-110707405D01*
X166434000Y-110707405D02*
X166493523Y-110647881D01*
X166493523Y-110647881D02*
X166374476Y-110647881D01*
D11*
%TO.C,J300*%
X131655500Y-127210903D02*
G75*
G02*
X130893500Y-127210903I-381000J0D01*
G01*
X130893500Y-127210903D02*
G75*
G02*
X131655500Y-127210903I381000J0D01*
G01*
%TD*%
M02*
